<?xml version="1.0" encoding="utf-8"?>
<!-- Generator: Adobe Illustrator 24.2.1, SVG Export Plug-In . SVG Version: 6.00 Build 0)  -->
<svg version="1.1" id="Layer_1" xmlns="http://www.w3.org/2000/svg" xmlns:xlink="http://www.w3.org/1999/xlink" x="0px" y="0px"
	 viewBox="0 0 692.1 171" style="enable-background:new 0 0 692.1 171;" xml:space="preserve">
<style type="text/css">
	.st0{fill:url(#SVGID_1_);}
	.st1{fill:#FFFFFF;}
	.st2{fill:url(#SVGID_2_);}
	.st3{fill:#008996;}
</style>
<g>
	<g>
		<linearGradient id="SVGID_1_" gradientUnits="userSpaceOnUse" x1="181.7985" y1="8.6338" x2="113.384" y2="108.956">
			<stop  offset="0" style="stop-color:#BAE3E4;stop-opacity:0.1564"/>
			<stop  offset="0.101" style="stop-color:#AEDDDF;stop-opacity:0.2224"/>
			<stop  offset="0.2855" style="stop-color:#8DCDD1;stop-opacity:0.3429"/>
			<stop  offset="0.5327" style="stop-color:#58B3BB;stop-opacity:0.5043"/>
			<stop  offset="0.8303" style="stop-color:#0F909C;stop-opacity:0.6986"/>
			<stop  offset="0.8884" style="stop-color:#008996;stop-opacity:0.7365"/>
		</linearGradient>
		<path class="st0" d="M119.7,127.4c-9.9-12.2-15.4-27.6-15.4-43.6c0-37.9,30.5-68.8,68-68.8c9.2,0,18.1,1.8,26.5,5.4l-1.4,3.2
			c-8-3.4-16.4-5.1-25.1-5.1c-35.6,0-64.5,29.3-64.5,65.3c0,15,5.2,29.6,14.4,41.2l0,0c1.4-0.9,3-1.4,4.8-1.4c5,0,9,4,9,9
			c0,5-4,9-9,9c-5,0-9-4-9-9C118.1,130.7,118.7,128.9,119.7,127.4L119.7,127.4z"/>
	</g>
	<g>
		<path class="st1" d="M127.1,127.1c-3,0-5.5,2.5-5.5,5.5s2.5,5.5,5.5,5.5s5.5-2.5,5.5-5.5S130.1,127.1,127.1,127.1z"/>
	</g>
	<g>
		<linearGradient id="SVGID_2_" gradientUnits="userSpaceOnUse" x1="154.8171" y1="158.409" x2="244.2159" y2="42.5642">
			<stop  offset="0" style="stop-color:#BAE3E4;stop-opacity:0.1564"/>
			<stop  offset="0.101" style="stop-color:#AEDDDF;stop-opacity:0.2224"/>
			<stop  offset="0.2855" style="stop-color:#8DCDD1;stop-opacity:0.3429"/>
			<stop  offset="0.5327" style="stop-color:#58B3BB;stop-opacity:0.5043"/>
			<stop  offset="0.8303" style="stop-color:#0F909C;stop-opacity:0.6986"/>
			<stop  offset="0.8884" style="stop-color:#008996;stop-opacity:0.7365"/>
		</linearGradient>
		<path class="st2" d="M223.6,38.7c10.8,12.5,16.8,28.5,16.8,45.2c0,37.9-30.5,68.8-68,68.8c-10.5,0-20.5-2.3-29.9-7l1.5-3.1
			c8.9,4.4,18.4,6.6,28.3,6.6c35.6,0,64.5-29.3,64.5-65.3c0-15.7-5.5-30.7-15.6-42.6l0,0c-1.5,1.1-3.4,1.8-5.4,1.8c-5,0-9-4-9-9
			c0-5,4-9,9-9c5,0,9,4,9,9C224.8,35.8,224.4,37.3,223.6,38.7L223.6,38.7z"/>
	</g>
	<g>
		<path class="st1" d="M215.8,28.7c-3,0-5.5,2.5-5.5,5.5c0,3,2.5,5.5,5.5,5.5s5.5-2.5,5.5-5.5C221.3,31.1,218.9,28.7,215.8,28.7z"/>
	</g>
	<g>
		<g>
			<path d="M57.6,133.9c-3.9,0-7.5-0.3-10.6-0.8c-3.2-0.5-6-1.2-8.6-2.1c-2.5-0.8-4.8-1.8-6.8-2.8c-1.9-1-3.5-1.8-4.8-2.7l-1.7-1
				l8.1-16.1l2,1.1c3.3,1.9,7,3.4,11,4.6c4,1.1,7.7,1.7,10.9,1.7c1.6,0,3.6-0.2,6-0.6c2.3-0.4,4.6-1.1,6.7-2.1
				c2.1-0.9,3.8-2.2,5.3-3.8c1.3-1.4,1.9-3.2,1.9-5.4c0-2-0.5-3.7-1.6-5.1c-1.2-1.5-2.7-2.9-4.7-4.1c-2.1-1.3-4.5-2.4-7.1-3.4
				c-2.8-1.1-5.7-2.2-8.6-3.4c-3-1.2-5.9-2.4-8.7-3.7c-3-1.4-5.6-3.1-8-5c-2.4-2-4.3-4.4-5.8-7.1c-1.5-2.8-2.3-6.1-2.3-9.9
				c0-3.5,0.7-6.9,2.1-10.3c1.4-3.4,3.5-6.4,6.3-9c2.8-2.6,6.2-4.7,10.3-6.2c4.1-1.6,8.8-2.3,14.1-2.3c3.2,0,6.4,0.3,9.5,0.8
				c3,0.5,5.8,1.1,8.3,1.8c2.4,0.7,4.6,1.3,6.3,1.9c2.4,0.9,3.1,1.2,3.5,1.4l1.8,0.9L86,56.5l-1.9-0.7c-3.4-1.3-6.9-2.3-10.2-3
				c-3.3-0.7-6.5-1.1-9.5-1.1c-4.9,0-8.9,1-11.7,3c-2.6,1.8-3.9,4-3.9,6.7c0,2.3,0.8,3.9,2.6,5.3c2.2,1.6,4.9,3.2,8.2,4.5
				c3.4,1.4,7.1,2.8,11.1,4.2c4.2,1.5,8.1,3.4,11.7,5.7c3.7,2.4,6.8,5.4,9.3,9c2.6,3.8,3.9,8.6,3.9,14.3c0,4.4-0.8,8.5-2.5,12.1
				c-1.6,3.6-4.1,6.8-7.3,9.4c-3.2,2.6-7.2,4.6-11.9,5.9C69.2,133.2,63.7,133.9,57.6,133.9z"/>
		</g>
		<g>
			<path d="M282.7,140.5L237.7,35h18.7l0.6,1.4c0.6,1.5,1.6,3.8,3,7.1c1.4,3.3,2.9,7.1,4.7,11.3c1.8,4.2,3.6,8.7,5.6,13.4l5.5,13.4
				c1.7,4.2,3.3,8,4.6,11.3c1,2.3,1.7,4.2,2.3,5.6c0.6-1.4,1.4-3.3,2.3-5.6c1.4-3.3,2.9-7.1,4.6-11.3c1.7-4.2,3.5-8.7,5.5-13.4
				c1.9-4.7,3.8-9.2,5.6-13.4c1.8-4.2,3.3-8,4.7-11.3c1.4-3.3,2.4-5.7,3-7.2l0.6-1.3h18.7l-1.3,3c-0.5,1.2-1.4,3.4-2.8,6.5
				c-1.3,3.1-2.9,6.9-4.8,11.4c-1.9,4.5-4,9.4-6.3,14.7c-2.3,5.3-4.6,10.8-7,16.3c-2.4,5.5-4.7,10.9-7,16.2
				c-2.3,5.3-4.3,10.2-6.2,14.7c-1.9,4.5-3.4,8.3-4.8,11.4l-0.1,0.2c-1.3,3.1-2.2,5.2-2.7,6.4L282.7,140.5z"/>
		</g>
	</g>
	<g>
		<g>
			<path d="M173.6,133.7c-4.5,0-8.8-0.6-13-1.8c-4.1-1.2-8-2.9-11.6-5c-3.6-2.2-6.9-4.8-9.8-7.8c-2.9-3-5.5-6.4-7.6-10
				c-2.1-3.7-3.7-7.6-4.9-11.9c-1.2-4.2-1.7-8.7-1.7-13.2s0.6-9,1.7-13.2c1.1-4.2,2.8-8.2,4.9-11.9c2.1-3.7,4.6-7,7.6-10
				c2.9-3,6.2-5.6,9.8-7.8c3.6-2.2,7.5-3.8,11.6-5c4.1-1.2,8.5-1.8,12.9-1.8c3.8,0,7.5,0.4,11.1,1.3c3.5,0.9,7,2.1,10.2,3.7
				c3.2,1.6,6.2,3.5,9,5.8c2.8,2.3,5.3,4.8,7.5,7.6l1.3,1.7l-12.8,10.4l-1.4-1.7c-3-3.7-6.7-6.7-10.9-8.9c-4.2-2.2-8.9-3.3-14-3.3
				c-4.4,0-8.6,0.9-12.4,2.6c-3.9,1.7-7.3,4.1-10.2,7.1c-2.9,3-5.2,6.5-6.9,10.5c-1.7,4-2.5,8.3-2.5,12.9c0,4.6,0.8,8.9,2.5,12.9
				c1.7,4,4,7.6,6.9,10.5c2.9,3,6.3,5.4,10.2,7.1c3.8,1.7,8,2.6,12.4,2.6c2.7,0,5.3-0.3,7.7-1c2.5-0.6,4.8-1.6,7-2.8
				c2.2-1.2,4.3-2.6,6.2-4.3c1.9-1.7,3.6-3.6,5-5.6l1.2-1.8l13.5,9.4l-1.2,1.8c-2.2,3.2-4.7,6-7.6,8.6c-2.9,2.5-6,4.7-9.3,6.5
				c-3.4,1.8-7,3.2-10.7,4.2C181.6,133.2,177.7,133.7,173.6,133.7z"/>
		</g>
	</g>
	<g>
		<path d="M335.3,42.5h-1.2v-6.4h-2.2v-1h5.6v1h-2.2V42.5z"/>
		<path d="M341.9,42.5l-2.2-6.2h0c0.1,0.9,0.1,1.8,0.1,2.6v3.6h-1.1V35h1.7l2.1,5.9h0l2.1-5.9h1.7v7.5h-1.2v-3.7c0-0.4,0-0.9,0-1.4
			c0-0.6,0-1,0-1.1h0l-2.2,6.2H341.9z"/>
	</g>
</g>
<g>
	<g>
		<g>
			<path d="M438.8,100.2h-16.8l0.8-12.9h-9.6l-6.1,12.9h-16.3l24.3-46.6h25.1L438.8,100.2z M423.3,78.1l0.7-11
				c0.1-1.6,0.1-1.8,0.3-3.6c-0.6,1.3-0.8,1.9-1.6,3.6l-5.2,11H423.3z"/>
			<path d="M497.1,100.2H482l5.5-21.5c0.2-1,0.5-2,0.5-2.8c0-0.7-0.3-2-1.9-2c-0.9,0-1.7,0.5-2.4,1.2c-0.7,0.7-1,1.5-1.5,3.4
				l-5.6,21.6h-15.1l5.5-21.3c0.3-1.4,0.6-2.4,0.6-3c0-1.1-0.5-2-1.9-2c-0.9,0-1.8,0.5-2.4,1c-0.9,0.9-1.3,2.3-1.8,4.6l-5.4,20.7
				h-15.1l8.6-33h15.1l-1.1,4.1c2.6-2,6.9-4.7,11.6-4.7c1.6,0,2.9,0.2,4.1,0.7c2.2,1.1,3.2,2.6,3.6,5c1.1-1.1,2.3-2.2,4.7-3.5
				c2.7-1.5,5.6-2.2,8.1-2.2c2,0,3.6,0.5,4.7,1.1c1.4,0.8,3.2,2.2,3.2,6.1c0,2.2-0.6,4.6-1.3,7.3L497.1,100.2z"/>
			<path d="M514.5,87.3c-3-1.2-7.6-3-7.6-9c0-3.6,2-7.7,6.9-10c3.4-1.7,7.4-2.2,11.2-2.2c9.3,0,15.8,1.8,15.8,7.9
				c0,0.7-0.1,1.3-0.2,1.8l-12.7-0.3c0-0.3,0.1-0.7,0.1-1.1c0-1.9-1.3-2.5-3.2-2.5c-1.9,0-3.4,0.9-3.4,2.4c0,1.9,2.2,2.6,5.3,3.6
				l4,1.3c2.6,0.9,7.3,2.6,7.3,8.6c0,3.9-2.4,8.1-5.9,10.4c-3.8,2.5-9.3,2.9-12.9,2.9c-1.1,0-4.3,0-7.9-0.6c-6.4-0.9-9-3.3-9-7.5
				c0-0.9,0.1-1.7,0.3-2.5l13.5,0.3c-0.1,0.3-0.1,0.7-0.1,1.1c0,2.9,2.5,3.1,3.6,3.1c2.5,0,3.7-1.5,3.7-2.8c0-1.9-1.7-2.5-4.7-3.5
				L514.5,87.3z"/>
			<path d="M558,85.7c-0.6,2.7-0.8,3.6-0.8,4.4c0,2.3,2.3,2.3,3.2,2.3c0.8,0,1.5-0.1,2.2-0.2l-1.9,7.5c-2.6,0.5-5.5,1.1-9,1.1
				c-1.9,0-3.8-0.2-5.5-0.9c-4-1.5-4.8-4.2-4.8-6.9c0-1.8,0.4-3.4,0.9-5.3l3.9-14.9h-3.5l1.5-5.7h3.4l1.5-5.8l16-3.1l-2.3,8.9h4.8
				l-1.5,5.7h-4.8L558,85.7z"/>
			<path d="M603,89.1c-0.5,1.7-1.2,4.3-4.5,7.1c-4.1,3.4-10.3,4.9-17.1,4.9c-1.9,0-3.9-0.1-5.8-0.5c-2.2-0.4-4.4-1-6.1-2.3
				c-3.8-2.8-3.9-6.9-3.9-8.5c0-4,1.6-10.6,3.6-14.3c2.6-5,7.2-9.4,18.9-9.4c9.5,0,16.9,2.5,16.9,11.7c0,3.1-0.9,6.1-1.2,7.3h-23
				c-0.6,2.4-1.1,4.4-1.1,6.3c0,2.2,1.1,3.4,3.1,3.4c4,0,4.9-3.2,5.5-5.7H603z M590.3,79.6c0.4-1.3,0.8-2.6,0.8-4.1c0-2.1-1.2-3-3-3
				c-3.8,0-4.8,3.7-5.7,7.1H590.3z"/>
			<path d="M640.1,100.2h-15.2l1-4c-1.2,1.1-2.5,2.3-4.9,3.4c-1.8,0.8-3.8,1.3-5.8,1.3c-3,0-5-1.1-6.2-2.2c-2.2-2.2-2.4-5.5-2.4-7.2
				c0-4.8,1.7-10.4,2.8-13.3c1-2.5,4.5-11.4,14.5-11.4c1.8,0,3.6,0.3,5.2,1.1c2,1,2.7,2.2,3.3,3.3l4.6-17.4h15.2L640.1,100.2z
				 M631.2,75.8c-0.4-0.7-1-2-2.6-2c-0.9,0-1.8,0.5-2.6,1.3c-0.9,1-1.4,2.2-1.8,3.4c-1.5,4.2-3.1,10.8-3.1,12.9c0,0.9,0.3,2.4,2,2.4
				c0.9,0,1.8-0.4,2.4-1c1.5-1.3,2.2-4.1,3-7.3L631.2,75.8z"/>
		</g>
	</g>
	<g>
		<path d="M657.7,53.4l-0.1,0.7h-1.2l-0.7,3.2h-0.8l0.7-3.2h-1.2l0.1-0.7H657.7z"/>
		<path d="M660.8,53.4h1.2l-0.8,3.9h-0.8l0.6-2.7c0-0.1,0-0.2,0.1-0.3c0-0.1,0.1-0.2,0.1-0.3l-1.4,3.3h-0.8l0-3.3
			c0,0.1,0,0.2-0.1,0.3s-0.1,0.2-0.1,0.3l-0.6,2.7h-0.8l0.8-3.9h1.2l0.1,3.1L660.8,53.4z"/>
	</g>
	<g>
		<g>
			<path class="st3" d="M386,118.8h-1l4.6-14.5h5.7c1.6,0,3.2,0.1,4.4,0.9c1.4,0.9,2.8,2.8,1.7,6.5c-0.9,2.8-2.8,4.9-5.4,6.2
				c-1.6,0.7-3.2,0.8-4.7,0.9H386z M389.7,115.9h2.1c1.9,0,3.1-0.7,3.8-1.3c1-0.9,1.7-1.9,2.1-3.2c0.4-1.3,0.4-2.2,0-3.1
				c-0.3-0.7-1.2-1.1-2.7-1.1h-2.5L389.7,115.9z"/>
		</g>
		<g>
			<path class="st3" d="M406.6,118.8h-3.7l4.6-14.5h3.7L406.6,118.8z"/>
		</g>
		<g>
			<path class="st3" d="M419.6,119.1c-2.4,0-4.2-0.3-5.7-1.7c-1.8-1.8-1.1-4.8-0.8-6c0.4-1.4,1.4-3,2.7-4.3c1.9-2,4.6-3,7.6-3
				c2,0,3.7,0.6,4.6,1.5c0.5,0.5,1,1.5,0.6,2.9l-0.1,0.5h-3.7l0.1-0.7c0-0.4-0.1-0.6-0.3-0.8c-0.3-0.3-1-0.5-1.9-0.5
				c-3.2,0-5.2,2.4-5.9,4.8c-0.5,1.8-0.4,2.9,0.1,3.6c0.5,0.6,1.5,0.9,3.2,0.9c0.8,0,1.7-0.1,2.5-0.3l0.8-2.5H420l0.9-2.9h7.2
				l-2.4,7.7l-0.4,0.1C423,118.8,421.2,119.1,419.6,119.1z"/>
		</g>
		<g>
			<path class="st3" d="M434,118.8h-3.7l4.6-14.5h3.7L434,118.8z"/>
		</g>
		<g>
			<path class="st3" d="M445.9,118.8h-3.7l3.6-11.6h-5.1l0.9-2.9h13.9l-0.9,2.9h-5.1L445.9,118.8z"/>
		</g>
		<g>
			<path class="st3" d="M467.6,118.8h-3.9l-0.6-3.4h-6l-2.7,3.4h-4.1l11.7-14.5h3.3L467.6,118.8z M459.5,112.4h3.3l-0.4-3.7
				L459.5,112.4z"/>
		</g>
		<g>
			<path class="st3" d="M481.3,118.8h-10.8l4.6-14.5h3.7l-3.6,11.6h7.1L481.3,118.8z"/>
		</g>
		<g>
			<path class="st3" d="M498.8,119.1c-2.2,0-3.7-0.5-4.5-1.5c-0.7-0.9-0.9-2.1-0.4-3.5l0.2-0.5h3.8l-0.2,0.9c-0.1,0.4-0.2,1,0.1,1.3
				c0.2,0.3,0.8,0.4,1.7,0.4c1.2,0,3.3-0.2,3.8-1.8c0.1-0.4,0-0.6,0-0.6c-0.2-0.2-0.6-0.4-1.2-0.5l-0.6-0.1
				c-1.9-0.4-4.2-0.8-5.2-2.2c-0.5-0.7-0.6-1.5-0.3-2.4c1-3.3,4.7-4.4,7.8-4.4c2,0,3.5,0.5,4.3,1.5c0.5,0.5,0.9,1.5,0.5,3l-0.2,0.5
				h-3.8l0.2-0.8c0.1-0.3,0.1-0.6-0.1-0.8c-0.2-0.3-0.8-0.4-1.6-0.4c-1.1,0-3,0.3-3.4,1.5c-0.2,0.6-0.2,0.7,1,1
				c0.2,0,0.3,0.1,0.5,0.1c0.5,0.1,1,0.3,1.5,0.4c1.6,0.4,3.3,0.7,4.1,1.9c0.5,0.7,0.5,1.6,0.2,2.6
				C506.1,117.4,503,119.1,498.8,119.1z"/>
		</g>
		<g>
			<path class="st3" d="M517,119.1c-2.8,0-4.2-1-4.9-1.8c-1.2-1.4-1.4-3.4-0.6-5.9c1.4-4.5,5.2-7.4,9.9-7.4c2.8,0,4.2,1,4.9,1.8
				c1.2,1.4,1.4,3.4,0.6,5.9C525.4,116.3,521.7,119.1,517,119.1z M520.8,106.9c-2.9,0-4.6,1.5-5.7,4.8c-0.6,1.8-0.6,3,0,3.7
				c0.4,0.5,1.2,0.7,2.3,0.7c2.8,0,4.6-1.5,5.7-4.8c0.6-1.8,0.6-3.1,0-3.7C522.7,107.2,522,106.9,520.8,106.9z"/>
		</g>
		<g>
			<path class="st3" d="M539.6,118.8h-10.8l4.6-14.5h3.7l-3.6,11.6h7.1L539.6,118.8z"/>
		</g>
		<g>
			<path class="st3" d="M550.3,119.1c-2.2,0-3.8-0.5-4.7-1.6c-1-1.1-1.1-2.7-0.4-4.7l2.7-8.4h3.7l-2.9,9.3c-0.2,0.6-0.3,1.5,0.2,2
				c0.5,0.5,1.3,0.6,2,0.6c2.1,0,3.7-1.1,4.4-3l2.8-8.9h3.7l-2.8,8.8C557.8,116.9,554.6,119.1,550.3,119.1z"/>
		</g>
		<g>
			<path class="st3" d="M569.2,118.8h-3.7l3.6-11.6h-5.1l0.9-2.9h13.9l-0.9,2.9h-5.1L569.2,118.8z"/>
		</g>
		<g>
			<path class="st3" d="M581.2,118.8h-3.7l4.6-14.5h3.7L581.2,118.8z"/>
		</g>
		<g>
			<path class="st3" d="M593.2,119.1c-2.8,0-4.2-1-4.9-1.8c-1.2-1.4-1.4-3.4-0.6-5.9c1.4-4.5,5.2-7.4,9.9-7.4c2.8,0,4.2,1,4.9,1.8
				c1.2,1.4,1.4,3.4,0.6,5.9C601.6,116.3,597.8,119.1,593.2,119.1z M597,106.9c-2.9,0-4.6,1.5-5.7,4.8c-0.6,1.8-0.6,3,0,3.7
				c0.4,0.5,1.2,0.7,2.3,0.7c2.8,0,4.6-1.5,5.7-4.8c0.6-1.8,0.6-3.1,0-3.7C598.9,107.2,598.1,106.9,597,106.9z"/>
		</g>
		<g>
			<path class="st3" d="M618.9,118.8h-3.8l-3.6-9.5l-3,9.5h-3.5l4.6-14.5h4.1l3.4,9.2l2.9-9.2h3.5L618.9,118.8z"/>
		</g>
		<g>
			<path class="st3" d="M629.5,119.1c-2.2,0-3.7-0.5-4.5-1.5c-0.7-0.9-0.9-2.1-0.4-3.5l0.2-0.5h3.8l-0.2,0.9c-0.1,0.4-0.2,1,0.1,1.3
				c0.2,0.3,0.8,0.4,1.7,0.4c1.2,0,3.3-0.2,3.8-1.8c0.1-0.4,0-0.6,0-0.6c-0.2-0.2-0.6-0.4-1.2-0.5l-0.6-0.1
				c-1.9-0.4-4.2-0.8-5.2-2.2c-0.5-0.7-0.6-1.5-0.3-2.4c1-3.3,4.7-4.4,7.9-4.4c2,0,3.5,0.5,4.3,1.5c0.5,0.5,0.9,1.5,0.5,3l-0.2,0.5
				h-3.8l0.2-0.8c0.1-0.3,0.1-0.6-0.1-0.8c-0.2-0.3-0.8-0.4-1.6-0.4c-1.1,0-3,0.3-3.4,1.5c-0.2,0.6-0.2,0.7,1,1
				c0.2,0,0.3,0.1,0.5,0.1c0.5,0.1,1,0.3,1.5,0.4c1.6,0.4,3.3,0.7,4.1,1.9c0.5,0.7,0.5,1.6,0.2,2.6
				C636.8,117.4,633.7,119.1,629.5,119.1z"/>
		</g>
	</g>
</g>
</svg>
